<?xml version="1.0" encoding="UTF-8" ?>
<!DOCTYPE svg PUBLIC "-//W3C//DTD SVG 1.1//EN" "http://www.w3.org/Graphics/SVG/1.1/DTD/svg11.dtd">
<svg width="54pt" height="53pt" viewBox="0 0 54 53" version="1.1" xmlns="http://www.w3.org/2000/svg">
<g id="#23a55bff">
<path fill="#23a55b" opacity="1.00" d=" M 20.48 4.17 C 27.72 2.56 35.68 3.79 41.46 8.66 C 37.26 15.37 33.07 22.09 28.61 28.64 C 27.35 24.01 23.68 20.25 18.96 19.18 C 14.80 18.57 10.51 18.93 6.53 20.33 L 5.37 20.67 C 5.02 20.77 4.31 20.96 3.96 21.06 C 4.13 20.45 4.48 19.21 4.66 18.60 C 5.19 17.53 5.72 16.46 6.22 15.38 C 8.52 11.16 12.28 7.79 16.56 5.66 C 17.87 5.16 19.18 4.69 20.48 4.17 M 7.52 15.20 C 9.57 15.84 11.66 16.34 13.60 17.30 C 15.39 18.26 17.47 17.98 19.42 18.11 C 23.23 19.54 27.00 21.95 28.40 25.98 L 29.65 25.89 C 29.46 25.02 29.07 23.26 28.88 22.38 C 24.86 14.71 15.09 14.26 7.52 15.20 Z" />
</g>
<g id="#ffffffff">
<path fill="#ffffff" opacity="1.00" d=" M 41.46 8.66 C 43.90 10.59 46.18 13.04 47.31 15.97 L 48.18 16.03 L 47.82 16.55 C 41.31 26.27 35.26 36.30 28.76 46.03 C 25.16 46.00 21.57 45.99 17.97 46.00 C 17.80 39.29 19.48 31.70 15.28 25.84 C 13.08 22.49 9.08 21.38 5.37 20.67 L 6.53 20.33 C 10.51 18.93 14.80 18.57 18.96 19.18 C 23.68 20.25 27.35 24.01 28.61 28.64 C 33.07 22.09 37.26 15.37 41.46 8.66 Z" />
<path fill="#ffffff" opacity="1.00" d=" M 7.52 15.20 C 15.09 14.26 24.86 14.71 28.88 22.38 C 29.07 23.26 29.46 25.02 29.65 25.89 L 28.40 25.98 C 27.00 21.95 23.23 19.54 19.42 18.11 C 17.47 17.98 15.39 18.26 13.60 17.30 C 11.66 16.34 9.57 15.84 7.52 15.20 Z" />
</g>
<g id="#2a6ed1ff">
<path fill="#2a6ed1" opacity="1.00" d=" M 28.76 46.03 C 35.26 36.30 41.31 26.27 47.82 16.55 C 48.36 17.82 48.89 19.10 49.39 20.40 C 50.79 26.05 50.28 32.24 47.75 37.53 C 47.04 38.55 46.36 39.59 45.72 40.65 C 43.83 42.72 41.95 44.88 39.53 46.36 C 37.87 47.21 36.19 48.01 34.53 48.86 C 34.04 48.95 33.05 49.11 32.56 49.20 C 27.36 51.14 21.38 49.90 16.36 47.84 C 11.51 45.33 7.77 41.35 5.17 36.60 C 3.60 31.57 1.92 26.24 3.96 21.06 C 4.31 20.96 5.02 20.77 5.37 20.67 C 9.08 21.38 13.08 22.49 15.28 25.84 C 19.48 31.70 17.80 39.29 17.97 46.00 C 21.57 45.99 25.16 46.00 28.76 46.03 Z" />
</g>
</svg>
